<svg xmlns="http://www.w3.org/2000/svg" width="1100" height="268" viewBox="0 0 1100 268">
<rect width="100%" height="100%" fill="white"/>
<g font-family="sans-serif" font-size="12" fill="#172b4d">
<text x="20" y="25" font-size="18">Measured rate: median and launch p10-p90 (log scale)</text>
<text x="20" y="46">Round trips and validated deliveries are separate workloads. See the table for CPU cost and latency.</text>
<text x="20" y="86">py-multiprocessing-pipe round-trip 64B q1 [e3cd0c37fac5]</text>
<line x1="895.55" x2="906.55" y1="82" y2="82" stroke="#147d92" stroke-width="3"/>
<circle cx="904.85" cy="82" r="4" fill="#172b4d"><title>29572 round-trips/s</title></circle>
<text x="20" y="114">py-multiprocessing-pipe round-trip 65536B q1 [ca960a7e07b4]</text>
<line x1="873.02" x2="878.14" y1="110" y2="110" stroke="#147d92" stroke-width="3"/>
<circle cx="874.79" cy="110" r="4" fill="#172b4d"><title>9979 round-trips/s</title></circle>
<text x="20" y="142">named-pipe-overlapped round-trip 64B q1 [7d6c83fa1fba]</text>
<line x1="919.42" x2="924.21" y1="138" y2="138" stroke="#147d92" stroke-width="3"/>
<circle cx="921.99" cy="138" r="4" fill="#172b4d"><title>54945 round-trips/s</title></circle>
<text x="20" y="170">shm-ring-spin round-trip 64B q1 [885333bcca00]</text>
<line x1="1032.20" x2="1040.00" y1="166" y2="166" stroke="#147d92" stroke-width="3"/>
<circle cx="1038.99" cy="166" r="4" fill="#172b4d"><title>3768465 round-trips/s</title></circle>
<text x="20" y="198">named-pipe-overlapped round-trip 65536B q1 [321e00e821d1]</text>
<line x1="871.32" x2="873.99" y1="194" y2="194" stroke="#147d92" stroke-width="3"/>
<circle cx="873.58" cy="194" r="4" fill="#172b4d"><title>9551 round-trips/s</title></circle>
<text x="20" y="226">shm-ring-spin round-trip 65536B q1 [d8852cea5c15]</text>
<line x1="885.19" x2="886.15" y1="222" y2="222" stroke="#147d92" stroke-width="3"/>
<circle cx="885.24" cy="222" r="4" fill="#172b4d"><title>14557 round-trips/s</title></circle>
</g></svg>