<svg xmlns="http://www.w3.org/2000/svg" width="1320" height="760" viewBox="0 0 1320 760" role="img" aria-labelledby="title desc">
<title id="title">Initial published run: selected throughput curves</title>
<desc id="desc">Selected cross-tier methods; higher is better; copy-roundtrip is the baseline floor.</desc>
<rect width="100%" height="100%" fill="#ffffff" />
<text x="100" y="42" font-family="Segoe UI, Arial, sans-serif" font-size="28" font-weight="700" fill="#111827">Initial published run: selected throughput curves</text>
<text x="100" y="68" font-family="Segoe UI, Arial, sans-serif" font-size="15" fill="#4b5563">Selected cross-tier methods; higher is better; copy-roundtrip is the baseline floor.</text>
<line x1="100" y1="643.77" x2="940" y2="643.77" stroke="#e5e7eb" stroke-width="1" />
<text x="88" y="648.77" text-anchor="end" font-family="Segoe UI, Arial, sans-serif" font-size="13" fill="#374151">20K/s</text>
<line x1="100" y1="583.28" x2="940" y2="583.28" stroke="#e5e7eb" stroke-width="1" />
<text x="88" y="588.28" text-anchor="end" font-family="Segoe UI, Arial, sans-serif" font-size="13" fill="#374151">50K/s</text>
<line x1="100" y1="537.52" x2="940" y2="537.52" stroke="#e5e7eb" stroke-width="1" />
<text x="88" y="542.52" text-anchor="end" font-family="Segoe UI, Arial, sans-serif" font-size="13" fill="#374151">100K/s</text>
<line x1="100" y1="491.76" x2="940" y2="491.76" stroke="#e5e7eb" stroke-width="1" />
<text x="88" y="496.76" text-anchor="end" font-family="Segoe UI, Arial, sans-serif" font-size="13" fill="#374151">200K/s</text>
<line x1="100" y1="431.27" x2="940" y2="431.27" stroke="#e5e7eb" stroke-width="1" />
<text x="88" y="436.27" text-anchor="end" font-family="Segoe UI, Arial, sans-serif" font-size="13" fill="#374151">500K/s</text>
<line x1="100" y1="385.51" x2="940" y2="385.51" stroke="#e5e7eb" stroke-width="1" />
<text x="88" y="390.51" text-anchor="end" font-family="Segoe UI, Arial, sans-serif" font-size="13" fill="#374151">1.0M/s</text>
<line x1="100" y1="339.75" x2="940" y2="339.75" stroke="#e5e7eb" stroke-width="1" />
<text x="88" y="344.75" text-anchor="end" font-family="Segoe UI, Arial, sans-serif" font-size="13" fill="#374151">2.0M/s</text>
<line x1="100" y1="279.26" x2="940" y2="279.26" stroke="#e5e7eb" stroke-width="1" />
<text x="88" y="284.26" text-anchor="end" font-family="Segoe UI, Arial, sans-serif" font-size="13" fill="#374151">5.0M/s</text>
<line x1="100" y1="233.50" x2="940" y2="233.50" stroke="#e5e7eb" stroke-width="1" />
<text x="88" y="238.50" text-anchor="end" font-family="Segoe UI, Arial, sans-serif" font-size="13" fill="#374151">10.0M/s</text>
<line x1="100" y1="187.74" x2="940" y2="187.74" stroke="#e5e7eb" stroke-width="1" />
<text x="88" y="192.74" text-anchor="end" font-family="Segoe UI, Arial, sans-serif" font-size="13" fill="#374151">20.0M/s</text>
<line x1="100" y1="127.25" x2="940" y2="127.25" stroke="#e5e7eb" stroke-width="1" />
<text x="88" y="132.25" text-anchor="end" font-family="Segoe UI, Arial, sans-serif" font-size="13" fill="#374151">50.0M/s</text>
<line x1="100.00" y1="90" x2="100.00" y2="660" stroke="#f3f4f6" stroke-width="1" />
<text x="100.00" y="688" text-anchor="middle" font-family="Segoe UI, Arial, sans-serif" font-size="13" fill="#374151">64 B</text>
<line x1="473.45" y1="90" x2="473.45" y2="660" stroke="#f3f4f6" stroke-width="1" />
<text x="473.45" y="688" text-anchor="middle" font-family="Segoe UI, Arial, sans-serif" font-size="13" fill="#374151">1024 B</text>
<line x1="660.18" y1="90" x2="660.18" y2="660" stroke="#f3f4f6" stroke-width="1" />
<text x="660.18" y="688" text-anchor="middle" font-family="Segoe UI, Arial, sans-serif" font-size="13" fill="#374151">4096 B</text>
<line x1="846.90" y1="90" x2="846.90" y2="660" stroke="#f3f4f6" stroke-width="1" />
<text x="846.90" y="688" text-anchor="middle" font-family="Segoe UI, Arial, sans-serif" font-size="13" fill="#374151">16384 B</text>
<line x1="940.00" y1="90" x2="940.00" y2="660" stroke="#f3f4f6" stroke-width="1" />
<text x="940.00" y="688" text-anchor="middle" font-family="Segoe UI, Arial, sans-serif" font-size="13" fill="#374151">32704 B</text>
<line x1="100" y1="660" x2="940" y2="660" stroke="#111827" stroke-width="1.5" />
<line x1="100" y1="90" x2="100" y2="660" stroke="#111827" stroke-width="1.5" />
<text x="520.00" y="732" text-anchor="middle" font-family="Segoe UI, Arial, sans-serif" font-size="14" fill="#374151">Payload size (bytes, log spacing)</text>
<text x="26" y="375.00" text-anchor="middle" font-family="Segoe UI, Arial, sans-serif" font-size="14" fill="#374151" transform="rotate(-90 26 375.00)">Messages per second (log scale)</text>
<polyline fill="none" stroke="#6b7280" stroke-width="3.2" stroke-linecap="round" stroke-linejoin="round" stroke-dasharray="8 5" points="100.00,129.31 473.45,193.03 660.18,260.36 846.90,411.04 940.00,436.94" />
<circle cx="100.00" cy="129.31" r="4.4" fill="#ffffff" stroke="#6b7280" stroke-width="2.2" />
<circle cx="473.45" cy="193.03" r="4.4" fill="#ffffff" stroke="#6b7280" stroke-width="2.2" />
<circle cx="660.18" cy="260.36" r="4.4" fill="#ffffff" stroke="#6b7280" stroke-width="2.2" />
<circle cx="846.90" cy="411.04" r="4.4" fill="#ffffff" stroke="#6b7280" stroke-width="2.2" />
<circle cx="940.00" cy="436.94" r="4.4" fill="#ffffff" stroke="#6b7280" stroke-width="2.2" />
<polyline fill="none" stroke="#dc2626" stroke-width="3.2" stroke-linecap="round" stroke-linejoin="round" points="100.00,250.18 473.45,293.60 660.18,357.94 846.90,442.22 940.00,487.27" />
<circle cx="100.00" cy="250.18" r="4.4" fill="#ffffff" stroke="#dc2626" stroke-width="2.2" />
<circle cx="473.45" cy="293.60" r="4.4" fill="#ffffff" stroke="#dc2626" stroke-width="2.2" />
<circle cx="660.18" cy="357.94" r="4.4" fill="#ffffff" stroke="#dc2626" stroke-width="2.2" />
<circle cx="846.90" cy="442.22" r="4.4" fill="#ffffff" stroke="#dc2626" stroke-width="2.2" />
<circle cx="940.00" cy="487.27" r="4.4" fill="#ffffff" stroke="#dc2626" stroke-width="2.2" />
<polyline fill="none" stroke="#f97316" stroke-width="3.2" stroke-linecap="round" stroke-linejoin="round" points="100.00,309.20 473.45,315.07 660.18,355.05 846.90,443.95 940.00,492.24" />
<circle cx="100.00" cy="309.20" r="4.4" fill="#ffffff" stroke="#f97316" stroke-width="2.2" />
<circle cx="473.45" cy="315.07" r="4.4" fill="#ffffff" stroke="#f97316" stroke-width="2.2" />
<circle cx="660.18" cy="355.05" r="4.4" fill="#ffffff" stroke="#f97316" stroke-width="2.2" />
<circle cx="846.90" cy="443.95" r="4.4" fill="#ffffff" stroke="#f97316" stroke-width="2.2" />
<circle cx="940.00" cy="492.24" r="4.4" fill="#ffffff" stroke="#f97316" stroke-width="2.2" />
<polyline fill="none" stroke="#2563eb" stroke-width="3.2" stroke-linecap="round" stroke-linejoin="round" points="100.00,270.36 473.45,303.68 660.18,358.07 846.90,429.72 940.00,472.78" />
<circle cx="100.00" cy="270.36" r="4.4" fill="#ffffff" stroke="#2563eb" stroke-width="2.2" />
<circle cx="473.45" cy="303.68" r="4.4" fill="#ffffff" stroke="#2563eb" stroke-width="2.2" />
<circle cx="660.18" cy="358.07" r="4.4" fill="#ffffff" stroke="#2563eb" stroke-width="2.2" />
<circle cx="846.90" cy="429.72" r="4.4" fill="#ffffff" stroke="#2563eb" stroke-width="2.2" />
<circle cx="940.00" cy="472.78" r="4.4" fill="#ffffff" stroke="#2563eb" stroke-width="2.2" />
<polyline fill="none" stroke="#0891b2" stroke-width="3.2" stroke-linecap="round" stroke-linejoin="round" points="100.00,307.91 473.45,328.12 660.18,358.93 846.90,430.48 940.00,479.30" />
<circle cx="100.00" cy="307.91" r="4.4" fill="#ffffff" stroke="#0891b2" stroke-width="2.2" />
<circle cx="473.45" cy="328.12" r="4.4" fill="#ffffff" stroke="#0891b2" stroke-width="2.2" />
<circle cx="660.18" cy="358.93" r="4.4" fill="#ffffff" stroke="#0891b2" stroke-width="2.2" />
<circle cx="846.90" cy="430.48" r="4.4" fill="#ffffff" stroke="#0891b2" stroke-width="2.2" />
<circle cx="940.00" cy="479.30" r="4.4" fill="#ffffff" stroke="#0891b2" stroke-width="2.2" />
<polyline fill="none" stroke="#16a34a" stroke-width="3.2" stroke-linecap="round" stroke-linejoin="round" points="100.00,434.86 473.45,448.88 660.18,448.85 846.90,482.50 940.00,510.31" />
<circle cx="100.00" cy="434.86" r="4.4" fill="#ffffff" stroke="#16a34a" stroke-width="2.2" />
<circle cx="473.45" cy="448.88" r="4.4" fill="#ffffff" stroke="#16a34a" stroke-width="2.2" />
<circle cx="660.18" cy="448.85" r="4.4" fill="#ffffff" stroke="#16a34a" stroke-width="2.2" />
<circle cx="846.90" cy="482.50" r="4.4" fill="#ffffff" stroke="#16a34a" stroke-width="2.2" />
<circle cx="940.00" cy="510.31" r="4.4" fill="#ffffff" stroke="#16a34a" stroke-width="2.2" />
<polyline fill="none" stroke="#7c3aed" stroke-width="3.2" stroke-linecap="round" stroke-linejoin="round" points="100.00,529.82 473.45,547.07 660.18,550.06 846.90,551.19 940.00,561.72" />
<circle cx="100.00" cy="529.82" r="4.4" fill="#ffffff" stroke="#7c3aed" stroke-width="2.2" />
<circle cx="473.45" cy="547.07" r="4.4" fill="#ffffff" stroke="#7c3aed" stroke-width="2.2" />
<circle cx="660.18" cy="550.06" r="4.4" fill="#ffffff" stroke="#7c3aed" stroke-width="2.2" />
<circle cx="846.90" cy="551.19" r="4.4" fill="#ffffff" stroke="#7c3aed" stroke-width="2.2" />
<circle cx="940.00" cy="561.72" r="4.4" fill="#ffffff" stroke="#7c3aed" stroke-width="2.2" />
<polyline fill="none" stroke="#a16207" stroke-width="3.2" stroke-linecap="round" stroke-linejoin="round" points="100.00,524.59 473.45,529.62 660.18,533.76 846.90,541.64 940.00,556.34" />
<circle cx="100.00" cy="524.59" r="4.4" fill="#ffffff" stroke="#a16207" stroke-width="2.2" />
<circle cx="473.45" cy="529.62" r="4.4" fill="#ffffff" stroke="#a16207" stroke-width="2.2" />
<circle cx="660.18" cy="533.76" r="4.4" fill="#ffffff" stroke="#a16207" stroke-width="2.2" />
<circle cx="846.90" cy="541.64" r="4.4" fill="#ffffff" stroke="#a16207" stroke-width="2.2" />
<circle cx="940.00" cy="556.34" r="4.4" fill="#ffffff" stroke="#a16207" stroke-width="2.2" />
<polyline fill="none" stroke="#db2777" stroke-width="3.2" stroke-linecap="round" stroke-linejoin="round" points="100.00,561.65 473.45,611.45 660.18,610.95 846.90,620.69 940.00,616.13" />
<circle cx="100.00" cy="561.65" r="4.4" fill="#ffffff" stroke="#db2777" stroke-width="2.2" />
<circle cx="473.45" cy="611.45" r="4.4" fill="#ffffff" stroke="#db2777" stroke-width="2.2" />
<circle cx="660.18" cy="610.95" r="4.4" fill="#ffffff" stroke="#db2777" stroke-width="2.2" />
<circle cx="846.90" cy="620.69" r="4.4" fill="#ffffff" stroke="#db2777" stroke-width="2.2" />
<circle cx="940.00" cy="616.13" r="4.4" fill="#ffffff" stroke="#db2777" stroke-width="2.2" />
<rect x="980" y="110" width="290" height="324" rx="12" fill="#f9fafb" stroke="#e5e7eb" />
<text x="998" y="136" font-family="Segoe UI, Arial, sans-serif" font-size="16" font-weight="700" fill="#111827">Legend</text>
<line x1="998" y1="162" x2="1032" y2="162" stroke="#6b7280" stroke-width="3.2" stroke-linecap="round" stroke-dasharray="8 5" />
<circle cx="1015" cy="162" r="4.2" fill="#ffffff" stroke="#6b7280" stroke-width="2.1" />
<text x="1044" y="167" font-family="Segoe UI, Arial, sans-serif" font-size="13.5" fill="#111827">copy-roundtrip (floor)</text>
<line x1="998" y1="194" x2="1032" y2="194" stroke="#dc2626" stroke-width="3.2" stroke-linecap="round" />
<circle cx="1015" cy="194" r="4.2" fill="#ffffff" stroke="#dc2626" stroke-width="2.1" />
<text x="1044" y="199" font-family="Segoe UI, Arial, sans-serif" font-size="13.5" fill="#111827">shm-mailbox-spin</text>
<line x1="998" y1="226" x2="1032" y2="226" stroke="#f97316" stroke-width="3.2" stroke-linecap="round" />
<circle cx="1015" cy="226" r="4.2" fill="#ffffff" stroke="#f97316" stroke-width="2.1" />
<text x="1044" y="231" font-family="Segoe UI, Arial, sans-serif" font-size="13.5" fill="#111827">shm-mailbox-hybrid</text>
<line x1="998" y1="258" x2="1032" y2="258" stroke="#2563eb" stroke-width="3.2" stroke-linecap="round" />
<circle cx="1015" cy="258" r="4.2" fill="#ffffff" stroke="#2563eb" stroke-width="2.1" />
<text x="1044" y="263" font-family="Segoe UI, Arial, sans-serif" font-size="13.5" fill="#111827">shm-ring-spin</text>
<line x1="998" y1="290" x2="1032" y2="290" stroke="#0891b2" stroke-width="3.2" stroke-linecap="round" />
<circle cx="1015" cy="290" r="4.2" fill="#ffffff" stroke="#0891b2" stroke-width="2.1" />
<text x="1044" y="295" font-family="Segoe UI, Arial, sans-serif" font-size="13.5" fill="#111827">shm-ring-hybrid</text>
<line x1="998" y1="322" x2="1032" y2="322" stroke="#16a34a" stroke-width="3.2" stroke-linecap="round" />
<circle cx="1015" cy="322" r="4.2" fill="#ffffff" stroke="#16a34a" stroke-width="2.1" />
<text x="1044" y="327" font-family="Segoe UI, Arial, sans-serif" font-size="13.5" fill="#111827">iceoryx2-pubsub-loan</text>
<line x1="998" y1="354" x2="1032" y2="354" stroke="#7c3aed" stroke-width="3.2" stroke-linecap="round" />
<circle cx="1015" cy="354" r="4.2" fill="#ffffff" stroke="#7c3aed" stroke-width="2.1" />
<text x="1044" y="359" font-family="Segoe UI, Arial, sans-serif" font-size="13.5" fill="#111827">named-pipe-message-sync</text>
<line x1="998" y1="386" x2="1032" y2="386" stroke="#a16207" stroke-width="3.2" stroke-linecap="round" />
<circle cx="1015" cy="386" r="4.2" fill="#ffffff" stroke="#a16207" stroke-width="2.1" />
<text x="1044" y="391" font-family="Segoe UI, Arial, sans-serif" font-size="13.5" fill="#111827">shm-events</text>
<line x1="998" y1="418" x2="1032" y2="418" stroke="#db2777" stroke-width="3.2" stroke-linecap="round" />
<circle cx="1015" cy="418" r="4.2" fill="#ffffff" stroke="#db2777" stroke-width="2.1" />
<text x="1044" y="423" font-family="Segoe UI, Arial, sans-serif" font-size="13.5" fill="#111827">py-multiprocessing-pipe</text>
<text x="100" y="752" font-family="Segoe UI, Arial, sans-serif" font-size="12" fill="#6b7280">Generated from published summary.json files by scripts/generate-published-charts.py</text>
</svg>