<svg xmlns="http://www.w3.org/2000/svg" width="1320" height="760" viewBox="0 0 1320 760" role="img" aria-labelledby="title desc">
<title id="title">Initial published run: median latency with min/max run range</title>
<desc id="desc">Lines show the median; shaded bands span the min/max launch-average latency across fresh runs.</desc>
<rect width="100%" height="100%" fill="#ffffff" />
<text x="100" y="42" font-family="Segoe UI, Arial, sans-serif" font-size="28" font-weight="700" fill="#111827">Initial published run: median latency with min/max run range</text>
<text x="100" y="68" font-family="Segoe UI, Arial, sans-serif" font-size="15" fill="#4b5563">Lines show the median; shaded bands span the min/max launch-average latency across fresh runs.</text>
<line x1="100" y1="619.60" x2="940" y2="619.60" stroke="#e5e7eb" stroke-width="1" />
<text x="88" y="624.60" text-anchor="end" font-family="Segoe UI, Arial, sans-serif" font-size="13" fill="#374151">0.020 us</text>
<line x1="100" y1="560.26" x2="940" y2="560.26" stroke="#e5e7eb" stroke-width="1" />
<text x="88" y="565.26" text-anchor="end" font-family="Segoe UI, Arial, sans-serif" font-size="13" fill="#374151">0.050 us</text>
<line x1="100" y1="515.37" x2="940" y2="515.37" stroke="#e5e7eb" stroke-width="1" />
<text x="88" y="520.37" text-anchor="end" font-family="Segoe UI, Arial, sans-serif" font-size="13" fill="#374151">0.10 us</text>
<line x1="100" y1="470.49" x2="940" y2="470.49" stroke="#e5e7eb" stroke-width="1" />
<text x="88" y="475.49" text-anchor="end" font-family="Segoe UI, Arial, sans-serif" font-size="13" fill="#374151">0.20 us</text>
<line x1="100" y1="411.15" x2="940" y2="411.15" stroke="#e5e7eb" stroke-width="1" />
<text x="88" y="416.15" text-anchor="end" font-family="Segoe UI, Arial, sans-serif" font-size="13" fill="#374151">0.50 us</text>
<line x1="100" y1="366.26" x2="940" y2="366.26" stroke="#e5e7eb" stroke-width="1" />
<text x="88" y="371.26" text-anchor="end" font-family="Segoe UI, Arial, sans-serif" font-size="13" fill="#374151">1.0 us</text>
<line x1="100" y1="321.37" x2="940" y2="321.37" stroke="#e5e7eb" stroke-width="1" />
<text x="88" y="326.37" text-anchor="end" font-family="Segoe UI, Arial, sans-serif" font-size="13" fill="#374151">2.0 us</text>
<line x1="100" y1="262.03" x2="940" y2="262.03" stroke="#e5e7eb" stroke-width="1" />
<text x="88" y="267.03" text-anchor="end" font-family="Segoe UI, Arial, sans-serif" font-size="13" fill="#374151">5.0 us</text>
<line x1="100" y1="217.14" x2="940" y2="217.14" stroke="#e5e7eb" stroke-width="1" />
<text x="88" y="222.14" text-anchor="end" font-family="Segoe UI, Arial, sans-serif" font-size="13" fill="#374151">10 us</text>
<line x1="100" y1="172.25" x2="940" y2="172.25" stroke="#e5e7eb" stroke-width="1" />
<text x="88" y="177.25" text-anchor="end" font-family="Segoe UI, Arial, sans-serif" font-size="13" fill="#374151">20 us</text>
<line x1="100" y1="112.91" x2="940" y2="112.91" stroke="#e5e7eb" stroke-width="1" />
<text x="88" y="117.91" text-anchor="end" font-family="Segoe UI, Arial, sans-serif" font-size="13" fill="#374151">50 us</text>
<line x1="100.00" y1="90" x2="100.00" y2="660" stroke="#f3f4f6" stroke-width="1" />
<text x="100.00" y="688" text-anchor="middle" font-family="Segoe UI, Arial, sans-serif" font-size="13" fill="#374151">64 B</text>
<line x1="473.45" y1="90" x2="473.45" y2="660" stroke="#f3f4f6" stroke-width="1" />
<text x="473.45" y="688" text-anchor="middle" font-family="Segoe UI, Arial, sans-serif" font-size="13" fill="#374151">1024 B</text>
<line x1="660.18" y1="90" x2="660.18" y2="660" stroke="#f3f4f6" stroke-width="1" />
<text x="660.18" y="688" text-anchor="middle" font-family="Segoe UI, Arial, sans-serif" font-size="13" fill="#374151">4096 B</text>
<line x1="846.90" y1="90" x2="846.90" y2="660" stroke="#f3f4f6" stroke-width="1" />
<text x="846.90" y="688" text-anchor="middle" font-family="Segoe UI, Arial, sans-serif" font-size="13" fill="#374151">16384 B</text>
<line x1="940.00" y1="90" x2="940.00" y2="660" stroke="#f3f4f6" stroke-width="1" />
<text x="940.00" y="688" text-anchor="middle" font-family="Segoe UI, Arial, sans-serif" font-size="13" fill="#374151">32704 B</text>
<line x1="100" y1="660" x2="940" y2="660" stroke="#111827" stroke-width="1.5" />
<line x1="100" y1="90" x2="100" y2="660" stroke="#111827" stroke-width="1.5" />
<text x="520.00" y="732" text-anchor="middle" font-family="Segoe UI, Arial, sans-serif" font-size="14" fill="#374151">Payload size (bytes, log spacing)</text>
<text x="26" y="375.00" text-anchor="middle" font-family="Segoe UI, Arial, sans-serif" font-size="14" fill="#374151" transform="rotate(-90 26 375.00)">Launch-average latency (log scale)</text>
<polygon points="100.00,617.48 473.45,538.81 660.18,482.23 846.90,338.90 940.00,312.48 940.00,317.60 846.90,345.65 660.18,489.52 473.45,556.37 100.00,620.69" fill="#6b7280" fill-opacity="0.12" stroke="none" />
<polyline fill="none" stroke="#6b7280" stroke-width="3.2" stroke-linecap="round" stroke-linejoin="round" stroke-dasharray="8 5" points="100.00,617.58 473.45,555.08 660.18,489.03 846.90,341.22 940.00,315.81" />
<circle cx="100.00" cy="617.58" r="4.4" fill="#ffffff" stroke="#6b7280" stroke-width="2.2" />
<circle cx="473.45" cy="555.08" r="4.4" fill="#ffffff" stroke="#6b7280" stroke-width="2.2" />
<circle cx="660.18" cy="489.03" r="4.4" fill="#ffffff" stroke="#6b7280" stroke-width="2.2" />
<circle cx="846.90" cy="341.22" r="4.4" fill="#ffffff" stroke="#6b7280" stroke-width="2.2" />
<circle cx="940.00" cy="315.81" r="4.4" fill="#ffffff" stroke="#6b7280" stroke-width="2.2" />
<polygon points="100.00,497.07 473.45,451.72 660.18,389.41 846.90,308.84 940.00,265.04 940.00,267.28 846.90,314.23 660.18,395.05 473.45,460.94 100.00,507.55" fill="#dc2626" fill-opacity="0.12" stroke="none" />
<polyline fill="none" stroke="#dc2626" stroke-width="3.2" stroke-linecap="round" stroke-linejoin="round" points="100.00,499.02 473.45,456.42 660.18,393.31 846.90,310.63 940.00,266.44" />
<circle cx="100.00" cy="499.02" r="4.4" fill="#ffffff" stroke="#dc2626" stroke-width="2.2" />
<circle cx="473.45" cy="456.42" r="4.4" fill="#ffffff" stroke="#dc2626" stroke-width="2.2" />
<circle cx="660.18" cy="393.31" r="4.4" fill="#ffffff" stroke="#dc2626" stroke-width="2.2" />
<circle cx="846.90" cy="310.63" r="4.4" fill="#ffffff" stroke="#dc2626" stroke-width="2.2" />
<circle cx="940.00" cy="266.44" r="4.4" fill="#ffffff" stroke="#dc2626" stroke-width="2.2" />
<polygon points="100.00,434.36 473.45,430.04 660.18,393.71 846.90,307.19 940.00,241.80 940.00,265.29 846.90,309.35 660.18,399.22 473.45,440.27 100.00,452.45" fill="#f97316" fill-opacity="0.12" stroke="none" />
<polyline fill="none" stroke="#f97316" stroke-width="3.2" stroke-linecap="round" stroke-linejoin="round" points="100.00,441.12 473.45,435.36 660.18,396.14 846.90,308.93 940.00,261.56" />
<circle cx="100.00" cy="441.12" r="4.4" fill="#ffffff" stroke="#f97316" stroke-width="2.2" />
<circle cx="473.45" cy="435.36" r="4.4" fill="#ffffff" stroke="#f97316" stroke-width="2.2" />
<circle cx="660.18" cy="396.14" r="4.4" fill="#ffffff" stroke="#f97316" stroke-width="2.2" />
<circle cx="846.90" cy="308.93" r="4.4" fill="#ffffff" stroke="#f97316" stroke-width="2.2" />
<circle cx="940.00" cy="261.56" r="4.4" fill="#ffffff" stroke="#f97316" stroke-width="2.2" />
<polygon points="100.00,469.63 473.45,442.25 660.18,390.52 846.90,320.19 940.00,279.79 940.00,286.11 846.90,323.46 660.18,394.43 473.45,448.47 100.00,484.73" fill="#2563eb" fill-opacity="0.12" stroke="none" />
<polyline fill="none" stroke="#2563eb" stroke-width="3.2" stroke-linecap="round" stroke-linejoin="round" points="100.00,479.22 473.45,446.53 660.18,393.18 846.90,322.89 940.00,280.66" />
<circle cx="100.00" cy="479.22" r="4.4" fill="#ffffff" stroke="#2563eb" stroke-width="2.2" />
<circle cx="473.45" cy="446.53" r="4.4" fill="#ffffff" stroke="#2563eb" stroke-width="2.2" />
<circle cx="660.18" cy="393.18" r="4.4" fill="#ffffff" stroke="#2563eb" stroke-width="2.2" />
<circle cx="846.90" cy="322.89" r="4.4" fill="#ffffff" stroke="#2563eb" stroke-width="2.2" />
<circle cx="940.00" cy="280.66" r="4.4" fill="#ffffff" stroke="#2563eb" stroke-width="2.2" />
<polygon points="100.00,427.44 473.45,420.26 660.18,384.07 846.90,321.67 940.00,264.96 940.00,280.46 846.90,323.82 660.18,395.39 473.45,433.06 100.00,447.35" fill="#0891b2" fill-opacity="0.12" stroke="none" />
<polyline fill="none" stroke="#0891b2" stroke-width="3.2" stroke-linecap="round" stroke-linejoin="round" points="100.00,442.38 473.45,422.56 660.18,392.33 846.90,322.15 940.00,274.25" />
<circle cx="100.00" cy="442.38" r="4.4" fill="#ffffff" stroke="#0891b2" stroke-width="2.2" />
<circle cx="473.45" cy="422.56" r="4.4" fill="#ffffff" stroke="#0891b2" stroke-width="2.2" />
<circle cx="660.18" cy="392.33" r="4.4" fill="#ffffff" stroke="#0891b2" stroke-width="2.2" />
<circle cx="846.90" cy="322.15" r="4.4" fill="#ffffff" stroke="#0891b2" stroke-width="2.2" />
<circle cx="940.00" cy="274.25" r="4.4" fill="#ffffff" stroke="#0891b2" stroke-width="2.2" />
<polygon points="100.00,316.65 473.45,299.78 660.18,301.86 846.90,269.46 940.00,242.15 940.00,244.56 846.90,272.09 660.18,304.82 473.45,315.18 100.00,319.71" fill="#16a34a" fill-opacity="0.12" stroke="none" />
<polyline fill="none" stroke="#16a34a" stroke-width="3.2" stroke-linecap="round" stroke-linejoin="round" points="100.00,317.85 473.45,304.10 660.18,304.12 846.90,271.12 940.00,243.83" />
<circle cx="100.00" cy="317.85" r="4.4" fill="#ffffff" stroke="#16a34a" stroke-width="2.2" />
<circle cx="473.45" cy="304.10" r="4.4" fill="#ffffff" stroke="#16a34a" stroke-width="2.2" />
<circle cx="660.18" cy="304.12" r="4.4" fill="#ffffff" stroke="#16a34a" stroke-width="2.2" />
<circle cx="846.90" cy="271.12" r="4.4" fill="#ffffff" stroke="#16a34a" stroke-width="2.2" />
<circle cx="940.00" cy="243.83" r="4.4" fill="#ffffff" stroke="#16a34a" stroke-width="2.2" />
<polygon points="100.00,222.24 473.45,192.46 660.18,204.22 846.90,202.42 940.00,189.29 940.00,193.73 846.90,205.92 660.18,206.45 473.45,211.35 100.00,225.46" fill="#7c3aed" fill-opacity="0.12" stroke="none" />
<polyline fill="none" stroke="#7c3aed" stroke-width="3.2" stroke-linecap="round" stroke-linejoin="round" points="100.00,224.70 473.45,207.78 660.18,204.85 846.90,203.73 940.00,193.41" />
<circle cx="100.00" cy="224.70" r="4.4" fill="#ffffff" stroke="#7c3aed" stroke-width="2.2" />
<circle cx="473.45" cy="207.78" r="4.4" fill="#ffffff" stroke="#7c3aed" stroke-width="2.2" />
<circle cx="660.18" cy="204.85" r="4.4" fill="#ffffff" stroke="#7c3aed" stroke-width="2.2" />
<circle cx="846.90" cy="203.73" r="4.4" fill="#ffffff" stroke="#7c3aed" stroke-width="2.2" />
<circle cx="940.00" cy="193.41" r="4.4" fill="#ffffff" stroke="#7c3aed" stroke-width="2.2" />
<polygon points="100.00,226.14 473.45,212.81 660.18,199.07 846.90,209.94 940.00,196.96 940.00,198.99 846.90,214.57 660.18,225.03 473.45,229.41 100.00,237.15" fill="#a16207" fill-opacity="0.12" stroke="none" />
<polyline fill="none" stroke="#a16207" stroke-width="3.2" stroke-linecap="round" stroke-linejoin="round" points="100.00,229.83 473.45,224.89 660.18,220.84 846.90,213.10 940.00,198.68" />
<circle cx="100.00" cy="229.83" r="4.4" fill="#ffffff" stroke="#a16207" stroke-width="2.2" />
<circle cx="473.45" cy="224.89" r="4.4" fill="#ffffff" stroke="#a16207" stroke-width="2.2" />
<circle cx="660.18" cy="220.84" r="4.4" fill="#ffffff" stroke="#a16207" stroke-width="2.2" />
<circle cx="846.90" cy="213.10" r="4.4" fill="#ffffff" stroke="#a16207" stroke-width="2.2" />
<circle cx="940.00" cy="198.68" r="4.4" fill="#ffffff" stroke="#a16207" stroke-width="2.2" />
<polygon points="100.00,180.76 473.45,141.76 660.18,140.49 846.90,129.31 940.00,137.07 940.00,141.51 846.90,139.26 660.18,146.58 473.45,153.23 100.00,196.24" fill="#db2777" fill-opacity="0.12" stroke="none" />
<polyline fill="none" stroke="#db2777" stroke-width="3.2" stroke-linecap="round" stroke-linejoin="round" points="100.00,193.47 473.45,144.63 660.18,145.11 846.90,135.56 940.00,140.03" />
<circle cx="100.00" cy="193.47" r="4.4" fill="#ffffff" stroke="#db2777" stroke-width="2.2" />
<circle cx="473.45" cy="144.63" r="4.4" fill="#ffffff" stroke="#db2777" stroke-width="2.2" />
<circle cx="660.18" cy="145.11" r="4.4" fill="#ffffff" stroke="#db2777" stroke-width="2.2" />
<circle cx="846.90" cy="135.56" r="4.4" fill="#ffffff" stroke="#db2777" stroke-width="2.2" />
<circle cx="940.00" cy="140.03" r="4.4" fill="#ffffff" stroke="#db2777" stroke-width="2.2" />
<rect x="980" y="110" width="290" height="324" rx="12" fill="#f9fafb" stroke="#e5e7eb" />
<text x="998" y="136" font-family="Segoe UI, Arial, sans-serif" font-size="16" font-weight="700" fill="#111827">Legend</text>
<line x1="998" y1="162" x2="1032" y2="162" stroke="#6b7280" stroke-width="3.2" stroke-linecap="round" stroke-dasharray="8 5" />
<circle cx="1015" cy="162" r="4.2" fill="#ffffff" stroke="#6b7280" stroke-width="2.1" />
<text x="1044" y="167" font-family="Segoe UI, Arial, sans-serif" font-size="13.5" fill="#111827">copy-roundtrip (floor)</text>
<line x1="998" y1="194" x2="1032" y2="194" stroke="#dc2626" stroke-width="3.2" stroke-linecap="round" />
<circle cx="1015" cy="194" r="4.2" fill="#ffffff" stroke="#dc2626" stroke-width="2.1" />
<text x="1044" y="199" font-family="Segoe UI, Arial, sans-serif" font-size="13.5" fill="#111827">shm-mailbox-spin</text>
<line x1="998" y1="226" x2="1032" y2="226" stroke="#f97316" stroke-width="3.2" stroke-linecap="round" />
<circle cx="1015" cy="226" r="4.2" fill="#ffffff" stroke="#f97316" stroke-width="2.1" />
<text x="1044" y="231" font-family="Segoe UI, Arial, sans-serif" font-size="13.5" fill="#111827">shm-mailbox-hybrid</text>
<line x1="998" y1="258" x2="1032" y2="258" stroke="#2563eb" stroke-width="3.2" stroke-linecap="round" />
<circle cx="1015" cy="258" r="4.2" fill="#ffffff" stroke="#2563eb" stroke-width="2.1" />
<text x="1044" y="263" font-family="Segoe UI, Arial, sans-serif" font-size="13.5" fill="#111827">shm-ring-spin</text>
<line x1="998" y1="290" x2="1032" y2="290" stroke="#0891b2" stroke-width="3.2" stroke-linecap="round" />
<circle cx="1015" cy="290" r="4.2" fill="#ffffff" stroke="#0891b2" stroke-width="2.1" />
<text x="1044" y="295" font-family="Segoe UI, Arial, sans-serif" font-size="13.5" fill="#111827">shm-ring-hybrid</text>
<line x1="998" y1="322" x2="1032" y2="322" stroke="#16a34a" stroke-width="3.2" stroke-linecap="round" />
<circle cx="1015" cy="322" r="4.2" fill="#ffffff" stroke="#16a34a" stroke-width="2.1" />
<text x="1044" y="327" font-family="Segoe UI, Arial, sans-serif" font-size="13.5" fill="#111827">iceoryx2-pubsub-loan</text>
<line x1="998" y1="354" x2="1032" y2="354" stroke="#7c3aed" stroke-width="3.2" stroke-linecap="round" />
<circle cx="1015" cy="354" r="4.2" fill="#ffffff" stroke="#7c3aed" stroke-width="2.1" />
<text x="1044" y="359" font-family="Segoe UI, Arial, sans-serif" font-size="13.5" fill="#111827">named-pipe-message-sync</text>
<line x1="998" y1="386" x2="1032" y2="386" stroke="#a16207" stroke-width="3.2" stroke-linecap="round" />
<circle cx="1015" cy="386" r="4.2" fill="#ffffff" stroke="#a16207" stroke-width="2.1" />
<text x="1044" y="391" font-family="Segoe UI, Arial, sans-serif" font-size="13.5" fill="#111827">shm-events</text>
<line x1="998" y1="418" x2="1032" y2="418" stroke="#db2777" stroke-width="3.2" stroke-linecap="round" />
<circle cx="1015" cy="418" r="4.2" fill="#ffffff" stroke="#db2777" stroke-width="2.1" />
<text x="1044" y="423" font-family="Segoe UI, Arial, sans-serif" font-size="13.5" fill="#111827">py-multiprocessing-pipe</text>
<text x="100" y="752" font-family="Segoe UI, Arial, sans-serif" font-size="12" fill="#6b7280">Generated from published summary.json files by scripts/generate-published-charts.py</text>
</svg>