<svg xmlns="http://www.w3.org/2000/svg" width="1320" height="760" viewBox="0 0 1320 760" role="img" aria-labelledby="title desc">
<title id="title">High-iteration run: selected throughput curves</title>
<desc id="desc">Selected cross-tier methods; higher is better; copy-roundtrip is the baseline floor.</desc>
<rect width="100%" height="100%" fill="#ffffff" />
<text x="100" y="42" font-family="Segoe UI, Arial, sans-serif" font-size="28" font-weight="700" fill="#111827">High-iteration run: selected throughput curves</text>
<text x="100" y="68" font-family="Segoe UI, Arial, sans-serif" font-size="15" fill="#4b5563">Selected cross-tier methods; higher is better; copy-roundtrip is the baseline floor.</text>
<line x1="100" y1="648.59" x2="940" y2="648.59" stroke="#e5e7eb" stroke-width="1" />
<text x="88" y="653.59" text-anchor="end" font-family="Segoe UI, Arial, sans-serif" font-size="13" fill="#374151">20K/s</text>
<line x1="100" y1="588.35" x2="940" y2="588.35" stroke="#e5e7eb" stroke-width="1" />
<text x="88" y="593.35" text-anchor="end" font-family="Segoe UI, Arial, sans-serif" font-size="13" fill="#374151">50K/s</text>
<line x1="100" y1="542.78" x2="940" y2="542.78" stroke="#e5e7eb" stroke-width="1" />
<text x="88" y="547.78" text-anchor="end" font-family="Segoe UI, Arial, sans-serif" font-size="13" fill="#374151">100K/s</text>
<line x1="100" y1="497.21" x2="940" y2="497.21" stroke="#e5e7eb" stroke-width="1" />
<text x="88" y="502.21" text-anchor="end" font-family="Segoe UI, Arial, sans-serif" font-size="13" fill="#374151">200K/s</text>
<line x1="100" y1="436.97" x2="940" y2="436.97" stroke="#e5e7eb" stroke-width="1" />
<text x="88" y="441.97" text-anchor="end" font-family="Segoe UI, Arial, sans-serif" font-size="13" fill="#374151">500K/s</text>
<line x1="100" y1="391.40" x2="940" y2="391.40" stroke="#e5e7eb" stroke-width="1" />
<text x="88" y="396.40" text-anchor="end" font-family="Segoe UI, Arial, sans-serif" font-size="13" fill="#374151">1.0M/s</text>
<line x1="100" y1="345.83" x2="940" y2="345.83" stroke="#e5e7eb" stroke-width="1" />
<text x="88" y="350.83" text-anchor="end" font-family="Segoe UI, Arial, sans-serif" font-size="13" fill="#374151">2.0M/s</text>
<line x1="100" y1="285.59" x2="940" y2="285.59" stroke="#e5e7eb" stroke-width="1" />
<text x="88" y="290.59" text-anchor="end" font-family="Segoe UI, Arial, sans-serif" font-size="13" fill="#374151">5.0M/s</text>
<line x1="100" y1="240.02" x2="940" y2="240.02" stroke="#e5e7eb" stroke-width="1" />
<text x="88" y="245.02" text-anchor="end" font-family="Segoe UI, Arial, sans-serif" font-size="13" fill="#374151">10.0M/s</text>
<line x1="100" y1="194.44" x2="940" y2="194.44" stroke="#e5e7eb" stroke-width="1" />
<text x="88" y="199.44" text-anchor="end" font-family="Segoe UI, Arial, sans-serif" font-size="13" fill="#374151">20.0M/s</text>
<line x1="100" y1="134.20" x2="940" y2="134.20" stroke="#e5e7eb" stroke-width="1" />
<text x="88" y="139.20" text-anchor="end" font-family="Segoe UI, Arial, sans-serif" font-size="13" fill="#374151">50.0M/s</text>
<line x1="100.00" y1="90" x2="100.00" y2="660" stroke="#f3f4f6" stroke-width="1" />
<text x="100.00" y="688" text-anchor="middle" font-family="Segoe UI, Arial, sans-serif" font-size="13" fill="#374151">64 B</text>
<line x1="473.45" y1="90" x2="473.45" y2="660" stroke="#f3f4f6" stroke-width="1" />
<text x="473.45" y="688" text-anchor="middle" font-family="Segoe UI, Arial, sans-serif" font-size="13" fill="#374151">1024 B</text>
<line x1="660.18" y1="90" x2="660.18" y2="660" stroke="#f3f4f6" stroke-width="1" />
<text x="660.18" y="688" text-anchor="middle" font-family="Segoe UI, Arial, sans-serif" font-size="13" fill="#374151">4096 B</text>
<line x1="846.90" y1="90" x2="846.90" y2="660" stroke="#f3f4f6" stroke-width="1" />
<text x="846.90" y="688" text-anchor="middle" font-family="Segoe UI, Arial, sans-serif" font-size="13" fill="#374151">16384 B</text>
<line x1="940.00" y1="90" x2="940.00" y2="660" stroke="#f3f4f6" stroke-width="1" />
<text x="940.00" y="688" text-anchor="middle" font-family="Segoe UI, Arial, sans-serif" font-size="13" fill="#374151">32704 B</text>
<line x1="100" y1="660" x2="940" y2="660" stroke="#111827" stroke-width="1.5" />
<line x1="100" y1="90" x2="100" y2="660" stroke="#111827" stroke-width="1.5" />
<text x="520.00" y="732" text-anchor="middle" font-family="Segoe UI, Arial, sans-serif" font-size="14" fill="#374151">Payload size (bytes, log spacing)</text>
<text x="26" y="375.00" text-anchor="middle" font-family="Segoe UI, Arial, sans-serif" font-size="14" fill="#374151" transform="rotate(-90 26 375.00)">Messages per second (log scale)</text>
<polyline fill="none" stroke="#6b7280" stroke-width="3.2" stroke-linecap="round" stroke-linejoin="round" stroke-dasharray="8 5" points="100.00,129.31 473.45,196.45 660.18,267.68 846.90,403.39 940.00,440.70" />
<circle cx="100.00" cy="129.31" r="4.4" fill="#ffffff" stroke="#6b7280" stroke-width="2.2" />
<circle cx="473.45" cy="196.45" r="4.4" fill="#ffffff" stroke="#6b7280" stroke-width="2.2" />
<circle cx="660.18" cy="267.68" r="4.4" fill="#ffffff" stroke="#6b7280" stroke-width="2.2" />
<circle cx="846.90" cy="403.39" r="4.4" fill="#ffffff" stroke="#6b7280" stroke-width="2.2" />
<circle cx="940.00" cy="440.70" r="4.4" fill="#ffffff" stroke="#6b7280" stroke-width="2.2" />
<polyline fill="none" stroke="#dc2626" stroke-width="3.2" stroke-linecap="round" stroke-linejoin="round" points="100.00,246.84 473.45,293.66 660.18,364.28 846.90,445.31 940.00,489.76" />
<circle cx="100.00" cy="246.84" r="4.4" fill="#ffffff" stroke="#dc2626" stroke-width="2.2" />
<circle cx="473.45" cy="293.66" r="4.4" fill="#ffffff" stroke="#dc2626" stroke-width="2.2" />
<circle cx="660.18" cy="364.28" r="4.4" fill="#ffffff" stroke="#dc2626" stroke-width="2.2" />
<circle cx="846.90" cy="445.31" r="4.4" fill="#ffffff" stroke="#dc2626" stroke-width="2.2" />
<circle cx="940.00" cy="489.76" r="4.4" fill="#ffffff" stroke="#dc2626" stroke-width="2.2" />
<polyline fill="none" stroke="#f97316" stroke-width="3.2" stroke-linecap="round" stroke-linejoin="round" points="100.00,302.85 473.45,312.05 660.18,363.22 846.90,449.96 940.00,494.15" />
<circle cx="100.00" cy="302.85" r="4.4" fill="#ffffff" stroke="#f97316" stroke-width="2.2" />
<circle cx="473.45" cy="312.05" r="4.4" fill="#ffffff" stroke="#f97316" stroke-width="2.2" />
<circle cx="660.18" cy="363.22" r="4.4" fill="#ffffff" stroke="#f97316" stroke-width="2.2" />
<circle cx="846.90" cy="449.96" r="4.4" fill="#ffffff" stroke="#f97316" stroke-width="2.2" />
<circle cx="940.00" cy="494.15" r="4.4" fill="#ffffff" stroke="#f97316" stroke-width="2.2" />
<polyline fill="none" stroke="#2563eb" stroke-width="3.2" stroke-linecap="round" stroke-linejoin="round" points="100.00,267.04 473.45,301.87 660.18,363.52 846.90,433.79 940.00,472.50" />
<circle cx="100.00" cy="267.04" r="4.4" fill="#ffffff" stroke="#2563eb" stroke-width="2.2" />
<circle cx="473.45" cy="301.87" r="4.4" fill="#ffffff" stroke="#2563eb" stroke-width="2.2" />
<circle cx="660.18" cy="363.52" r="4.4" fill="#ffffff" stroke="#2563eb" stroke-width="2.2" />
<circle cx="846.90" cy="433.79" r="4.4" fill="#ffffff" stroke="#2563eb" stroke-width="2.2" />
<circle cx="940.00" cy="472.50" r="4.4" fill="#ffffff" stroke="#2563eb" stroke-width="2.2" />
<polyline fill="none" stroke="#0891b2" stroke-width="3.2" stroke-linecap="round" stroke-linejoin="round" points="100.00,308.90 473.45,321.56 660.18,364.83 846.90,437.28 940.00,466.70" />
<circle cx="100.00" cy="308.90" r="4.4" fill="#ffffff" stroke="#0891b2" stroke-width="2.2" />
<circle cx="473.45" cy="321.56" r="4.4" fill="#ffffff" stroke="#0891b2" stroke-width="2.2" />
<circle cx="660.18" cy="364.83" r="4.4" fill="#ffffff" stroke="#0891b2" stroke-width="2.2" />
<circle cx="846.90" cy="437.28" r="4.4" fill="#ffffff" stroke="#0891b2" stroke-width="2.2" />
<circle cx="940.00" cy="466.70" r="4.4" fill="#ffffff" stroke="#0891b2" stroke-width="2.2" />
<polyline fill="none" stroke="#16a34a" stroke-width="3.2" stroke-linecap="round" stroke-linejoin="round" points="100.00,439.29 473.45,441.53 660.18,452.47 846.90,488.85 940.00,515.34" />
<circle cx="100.00" cy="439.29" r="4.4" fill="#ffffff" stroke="#16a34a" stroke-width="2.2" />
<circle cx="473.45" cy="441.53" r="4.4" fill="#ffffff" stroke="#16a34a" stroke-width="2.2" />
<circle cx="660.18" cy="452.47" r="4.4" fill="#ffffff" stroke="#16a34a" stroke-width="2.2" />
<circle cx="846.90" cy="488.85" r="4.4" fill="#ffffff" stroke="#16a34a" stroke-width="2.2" />
<circle cx="940.00" cy="515.34" r="4.4" fill="#ffffff" stroke="#16a34a" stroke-width="2.2" />
<polyline fill="none" stroke="#7c3aed" stroke-width="3.2" stroke-linecap="round" stroke-linejoin="round" points="100.00,544.93 473.45,541.97 660.18,552.38 846.90,557.53 940.00,570.99" />
<circle cx="100.00" cy="544.93" r="4.4" fill="#ffffff" stroke="#7c3aed" stroke-width="2.2" />
<circle cx="473.45" cy="541.97" r="4.4" fill="#ffffff" stroke="#7c3aed" stroke-width="2.2" />
<circle cx="660.18" cy="552.38" r="4.4" fill="#ffffff" stroke="#7c3aed" stroke-width="2.2" />
<circle cx="846.90" cy="557.53" r="4.4" fill="#ffffff" stroke="#7c3aed" stroke-width="2.2" />
<circle cx="940.00" cy="570.99" r="4.4" fill="#ffffff" stroke="#7c3aed" stroke-width="2.2" />
<polyline fill="none" stroke="#a16207" stroke-width="3.2" stroke-linecap="round" stroke-linejoin="round" points="100.00,528.75 473.45,523.06 660.18,541.17 846.90,558.60 940.00,556.98" />
<circle cx="100.00" cy="528.75" r="4.4" fill="#ffffff" stroke="#a16207" stroke-width="2.2" />
<circle cx="473.45" cy="523.06" r="4.4" fill="#ffffff" stroke="#a16207" stroke-width="2.2" />
<circle cx="660.18" cy="541.17" r="4.4" fill="#ffffff" stroke="#a16207" stroke-width="2.2" />
<circle cx="846.90" cy="558.60" r="4.4" fill="#ffffff" stroke="#a16207" stroke-width="2.2" />
<circle cx="940.00" cy="556.98" r="4.4" fill="#ffffff" stroke="#a16207" stroke-width="2.2" />
<polyline fill="none" stroke="#db2777" stroke-width="3.2" stroke-linecap="round" stroke-linejoin="round" points="100.00,569.07 473.45,608.12 660.18,614.30 846.90,620.69 940.00,620.20" />
<circle cx="100.00" cy="569.07" r="4.4" fill="#ffffff" stroke="#db2777" stroke-width="2.2" />
<circle cx="473.45" cy="608.12" r="4.4" fill="#ffffff" stroke="#db2777" stroke-width="2.2" />
<circle cx="660.18" cy="614.30" r="4.4" fill="#ffffff" stroke="#db2777" stroke-width="2.2" />
<circle cx="846.90" cy="620.69" r="4.4" fill="#ffffff" stroke="#db2777" stroke-width="2.2" />
<circle cx="940.00" cy="620.20" r="4.4" fill="#ffffff" stroke="#db2777" stroke-width="2.2" />
<rect x="980" y="110" width="290" height="324" rx="12" fill="#f9fafb" stroke="#e5e7eb" />
<text x="998" y="136" font-family="Segoe UI, Arial, sans-serif" font-size="16" font-weight="700" fill="#111827">Legend</text>
<line x1="998" y1="162" x2="1032" y2="162" stroke="#6b7280" stroke-width="3.2" stroke-linecap="round" stroke-dasharray="8 5" />
<circle cx="1015" cy="162" r="4.2" fill="#ffffff" stroke="#6b7280" stroke-width="2.1" />
<text x="1044" y="167" font-family="Segoe UI, Arial, sans-serif" font-size="13.5" fill="#111827">copy-roundtrip (floor)</text>
<line x1="998" y1="194" x2="1032" y2="194" stroke="#dc2626" stroke-width="3.2" stroke-linecap="round" />
<circle cx="1015" cy="194" r="4.2" fill="#ffffff" stroke="#dc2626" stroke-width="2.1" />
<text x="1044" y="199" font-family="Segoe UI, Arial, sans-serif" font-size="13.5" fill="#111827">shm-mailbox-spin</text>
<line x1="998" y1="226" x2="1032" y2="226" stroke="#f97316" stroke-width="3.2" stroke-linecap="round" />
<circle cx="1015" cy="226" r="4.2" fill="#ffffff" stroke="#f97316" stroke-width="2.1" />
<text x="1044" y="231" font-family="Segoe UI, Arial, sans-serif" font-size="13.5" fill="#111827">shm-mailbox-hybrid</text>
<line x1="998" y1="258" x2="1032" y2="258" stroke="#2563eb" stroke-width="3.2" stroke-linecap="round" />
<circle cx="1015" cy="258" r="4.2" fill="#ffffff" stroke="#2563eb" stroke-width="2.1" />
<text x="1044" y="263" font-family="Segoe UI, Arial, sans-serif" font-size="13.5" fill="#111827">shm-ring-spin</text>
<line x1="998" y1="290" x2="1032" y2="290" stroke="#0891b2" stroke-width="3.2" stroke-linecap="round" />
<circle cx="1015" cy="290" r="4.2" fill="#ffffff" stroke="#0891b2" stroke-width="2.1" />
<text x="1044" y="295" font-family="Segoe UI, Arial, sans-serif" font-size="13.5" fill="#111827">shm-ring-hybrid</text>
<line x1="998" y1="322" x2="1032" y2="322" stroke="#16a34a" stroke-width="3.2" stroke-linecap="round" />
<circle cx="1015" cy="322" r="4.2" fill="#ffffff" stroke="#16a34a" stroke-width="2.1" />
<text x="1044" y="327" font-family="Segoe UI, Arial, sans-serif" font-size="13.5" fill="#111827">iceoryx2-pubsub-loan</text>
<line x1="998" y1="354" x2="1032" y2="354" stroke="#7c3aed" stroke-width="3.2" stroke-linecap="round" />
<circle cx="1015" cy="354" r="4.2" fill="#ffffff" stroke="#7c3aed" stroke-width="2.1" />
<text x="1044" y="359" font-family="Segoe UI, Arial, sans-serif" font-size="13.5" fill="#111827">named-pipe-message-sync</text>
<line x1="998" y1="386" x2="1032" y2="386" stroke="#a16207" stroke-width="3.2" stroke-linecap="round" />
<circle cx="1015" cy="386" r="4.2" fill="#ffffff" stroke="#a16207" stroke-width="2.1" />
<text x="1044" y="391" font-family="Segoe UI, Arial, sans-serif" font-size="13.5" fill="#111827">shm-events</text>
<line x1="998" y1="418" x2="1032" y2="418" stroke="#db2777" stroke-width="3.2" stroke-linecap="round" />
<circle cx="1015" cy="418" r="4.2" fill="#ffffff" stroke="#db2777" stroke-width="2.1" />
<text x="1044" y="423" font-family="Segoe UI, Arial, sans-serif" font-size="13.5" fill="#111827">py-multiprocessing-pipe</text>
<text x="100" y="752" font-family="Segoe UI, Arial, sans-serif" font-size="12" fill="#6b7280">Generated from published summary.json files by scripts/generate-published-charts.py</text>
</svg>