<svg xmlns="http://www.w3.org/2000/svg" width="1320" height="760" viewBox="0 0 1320 760" role="img" aria-labelledby="title desc">
<title id="title">High-iteration run: median latency with min/max run range</title>
<desc id="desc">Lines show the median; shaded bands span the min/max launch-average latency across fresh runs.</desc>
<rect width="100%" height="100%" fill="#ffffff" />
<text x="100" y="42" font-family="Segoe UI, Arial, sans-serif" font-size="28" font-weight="700" fill="#111827">High-iteration run: median latency with min/max run range</text>
<text x="100" y="68" font-family="Segoe UI, Arial, sans-serif" font-size="15" fill="#4b5563">Lines show the median; shaded bands span the min/max launch-average latency across fresh runs.</text>
<line x1="100" y1="659.26" x2="940" y2="659.26" stroke="#e5e7eb" stroke-width="1" />
<text x="88" y="664.26" text-anchor="end" font-family="Segoe UI, Arial, sans-serif" font-size="13" fill="#374151">0.010 us</text>
<line x1="100" y1="614.29" x2="940" y2="614.29" stroke="#e5e7eb" stroke-width="1" />
<text x="88" y="619.29" text-anchor="end" font-family="Segoe UI, Arial, sans-serif" font-size="13" fill="#374151">0.020 us</text>
<line x1="100" y1="554.85" x2="940" y2="554.85" stroke="#e5e7eb" stroke-width="1" />
<text x="88" y="559.85" text-anchor="end" font-family="Segoe UI, Arial, sans-serif" font-size="13" fill="#374151">0.050 us</text>
<line x1="100" y1="509.88" x2="940" y2="509.88" stroke="#e5e7eb" stroke-width="1" />
<text x="88" y="514.88" text-anchor="end" font-family="Segoe UI, Arial, sans-serif" font-size="13" fill="#374151">0.10 us</text>
<line x1="100" y1="464.91" x2="940" y2="464.91" stroke="#e5e7eb" stroke-width="1" />
<text x="88" y="469.91" text-anchor="end" font-family="Segoe UI, Arial, sans-serif" font-size="13" fill="#374151">0.20 us</text>
<line x1="100" y1="405.47" x2="940" y2="405.47" stroke="#e5e7eb" stroke-width="1" />
<text x="88" y="410.47" text-anchor="end" font-family="Segoe UI, Arial, sans-serif" font-size="13" fill="#374151">0.50 us</text>
<line x1="100" y1="360.50" x2="940" y2="360.50" stroke="#e5e7eb" stroke-width="1" />
<text x="88" y="365.50" text-anchor="end" font-family="Segoe UI, Arial, sans-serif" font-size="13" fill="#374151">1.0 us</text>
<line x1="100" y1="315.53" x2="940" y2="315.53" stroke="#e5e7eb" stroke-width="1" />
<text x="88" y="320.53" text-anchor="end" font-family="Segoe UI, Arial, sans-serif" font-size="13" fill="#374151">2.0 us</text>
<line x1="100" y1="256.09" x2="940" y2="256.09" stroke="#e5e7eb" stroke-width="1" />
<text x="88" y="261.09" text-anchor="end" font-family="Segoe UI, Arial, sans-serif" font-size="13" fill="#374151">5.0 us</text>
<line x1="100" y1="211.12" x2="940" y2="211.12" stroke="#e5e7eb" stroke-width="1" />
<text x="88" y="216.12" text-anchor="end" font-family="Segoe UI, Arial, sans-serif" font-size="13" fill="#374151">10 us</text>
<line x1="100" y1="166.15" x2="940" y2="166.15" stroke="#e5e7eb" stroke-width="1" />
<text x="88" y="171.15" text-anchor="end" font-family="Segoe UI, Arial, sans-serif" font-size="13" fill="#374151">20 us</text>
<line x1="100" y1="106.71" x2="940" y2="106.71" stroke="#e5e7eb" stroke-width="1" />
<text x="88" y="111.71" text-anchor="end" font-family="Segoe UI, Arial, sans-serif" font-size="13" fill="#374151">50 us</text>
<line x1="100.00" y1="90" x2="100.00" y2="660" stroke="#f3f4f6" stroke-width="1" />
<text x="100.00" y="688" text-anchor="middle" font-family="Segoe UI, Arial, sans-serif" font-size="13" fill="#374151">64 B</text>
<line x1="473.45" y1="90" x2="473.45" y2="660" stroke="#f3f4f6" stroke-width="1" />
<text x="473.45" y="688" text-anchor="middle" font-family="Segoe UI, Arial, sans-serif" font-size="13" fill="#374151">1024 B</text>
<line x1="660.18" y1="90" x2="660.18" y2="660" stroke="#f3f4f6" stroke-width="1" />
<text x="660.18" y="688" text-anchor="middle" font-family="Segoe UI, Arial, sans-serif" font-size="13" fill="#374151">4096 B</text>
<line x1="846.90" y1="90" x2="846.90" y2="660" stroke="#f3f4f6" stroke-width="1" />
<text x="846.90" y="688" text-anchor="middle" font-family="Segoe UI, Arial, sans-serif" font-size="13" fill="#374151">16384 B</text>
<line x1="940.00" y1="90" x2="940.00" y2="660" stroke="#f3f4f6" stroke-width="1" />
<text x="940.00" y="688" text-anchor="middle" font-family="Segoe UI, Arial, sans-serif" font-size="13" fill="#374151">32704 B</text>
<line x1="100" y1="660" x2="940" y2="660" stroke="#111827" stroke-width="1.5" />
<line x1="100" y1="90" x2="100" y2="660" stroke="#111827" stroke-width="1.5" />
<text x="520.00" y="732" text-anchor="middle" font-family="Segoe UI, Arial, sans-serif" font-size="14" fill="#374151">Payload size (bytes, log spacing)</text>
<text x="26" y="375.00" text-anchor="middle" font-family="Segoe UI, Arial, sans-serif" font-size="14" fill="#374151" transform="rotate(-90 26 375.00)">Launch-average latency (log scale)</text>
<polygon points="100.00,609.46 473.45,551.29 660.18,476.85 846.90,348.14 940.00,309.44 940.00,312.11 846.90,349.21 660.18,486.34 473.45,554.19 100.00,620.69" fill="#6b7280" fill-opacity="0.12" stroke="none" />
<polyline fill="none" stroke="#6b7280" stroke-width="3.2" stroke-linecap="round" stroke-linejoin="round" stroke-dasharray="8 5" points="100.00,619.12 473.45,552.87 660.18,482.58 846.90,348.66 940.00,311.85" />
<circle cx="100.00" cy="619.12" r="4.4" fill="#ffffff" stroke="#6b7280" stroke-width="2.2" />
<circle cx="473.45" cy="552.87" r="4.4" fill="#ffffff" stroke="#6b7280" stroke-width="2.2" />
<circle cx="660.18" cy="482.58" r="4.4" fill="#ffffff" stroke="#6b7280" stroke-width="2.2" />
<circle cx="846.90" cy="348.66" r="4.4" fill="#ffffff" stroke="#6b7280" stroke-width="2.2" />
<circle cx="940.00" cy="311.85" r="4.4" fill="#ffffff" stroke="#6b7280" stroke-width="2.2" />
<polygon points="100.00,498.97 473.45,454.21 660.18,386.78 846.90,305.43 940.00,260.81 940.00,264.29 846.90,307.61 660.18,387.61 473.45,457.30 100.00,506.08" fill="#dc2626" fill-opacity="0.12" stroke="none" />
<polyline fill="none" stroke="#dc2626" stroke-width="3.2" stroke-linecap="round" stroke-linejoin="round" points="100.00,503.14 473.45,456.94 660.18,387.26 846.90,307.30 940.00,263.44" />
<circle cx="100.00" cy="503.14" r="4.4" fill="#ffffff" stroke="#dc2626" stroke-width="2.2" />
<circle cx="473.45" cy="456.94" r="4.4" fill="#ffffff" stroke="#dc2626" stroke-width="2.2" />
<circle cx="660.18" cy="387.26" r="4.4" fill="#ffffff" stroke="#dc2626" stroke-width="2.2" />
<circle cx="846.90" cy="307.30" r="4.4" fill="#ffffff" stroke="#dc2626" stroke-width="2.2" />
<circle cx="940.00" cy="263.44" r="4.4" fill="#ffffff" stroke="#dc2626" stroke-width="2.2" />
<polygon points="100.00,447.49 473.45,436.76 660.18,387.66 846.90,302.53 940.00,258.86 940.00,261.95 846.90,308.47 660.18,388.57 473.45,439.37 100.00,448.34" fill="#f97316" fill-opacity="0.12" stroke="none" />
<polyline fill="none" stroke="#f97316" stroke-width="3.2" stroke-linecap="round" stroke-linejoin="round" points="100.00,447.88 473.45,438.80 660.18,388.30 846.90,302.71 940.00,259.11" />
<circle cx="100.00" cy="447.88" r="4.4" fill="#ffffff" stroke="#f97316" stroke-width="2.2" />
<circle cx="473.45" cy="438.80" r="4.4" fill="#ffffff" stroke="#f97316" stroke-width="2.2" />
<circle cx="660.18" cy="388.30" r="4.4" fill="#ffffff" stroke="#f97316" stroke-width="2.2" />
<circle cx="846.90" cy="302.71" r="4.4" fill="#ffffff" stroke="#f97316" stroke-width="2.2" />
<circle cx="940.00" cy="259.11" r="4.4" fill="#ffffff" stroke="#f97316" stroke-width="2.2" />
<polygon points="100.00,482.13 473.45,448.03 660.18,382.84 846.90,317.87 940.00,279.63 940.00,284.71 846.90,319.11 660.18,388.31 473.45,449.38 100.00,483.54" fill="#2563eb" fill-opacity="0.12" stroke="none" />
<polyline fill="none" stroke="#2563eb" stroke-width="3.2" stroke-linecap="round" stroke-linejoin="round" points="100.00,483.21 473.45,448.85 660.18,388.01 846.90,318.67 940.00,280.47" />
<circle cx="100.00" cy="483.21" r="4.4" fill="#ffffff" stroke="#2563eb" stroke-width="2.2" />
<circle cx="473.45" cy="448.85" r="4.4" fill="#ffffff" stroke="#2563eb" stroke-width="2.2" />
<circle cx="660.18" cy="388.01" r="4.4" fill="#ffffff" stroke="#2563eb" stroke-width="2.2" />
<circle cx="846.90" cy="318.67" r="4.4" fill="#ffffff" stroke="#2563eb" stroke-width="2.2" />
<circle cx="940.00" cy="280.47" r="4.4" fill="#ffffff" stroke="#2563eb" stroke-width="2.2" />
<polygon points="100.00,441.65 473.45,428.43 660.18,385.74 846.90,314.48 940.00,281.01 940.00,286.94 846.90,316.23 660.18,386.82 473.45,429.83 100.00,442.13" fill="#0891b2" fill-opacity="0.12" stroke="none" />
<polyline fill="none" stroke="#0891b2" stroke-width="3.2" stroke-linecap="round" stroke-linejoin="round" points="100.00,441.91 473.45,429.41 660.18,386.72 846.90,315.23 940.00,286.19" />
<circle cx="100.00" cy="441.91" r="4.4" fill="#ffffff" stroke="#0891b2" stroke-width="2.2" />
<circle cx="473.45" cy="429.41" r="4.4" fill="#ffffff" stroke="#0891b2" stroke-width="2.2" />
<circle cx="660.18" cy="386.72" r="4.4" fill="#ffffff" stroke="#0891b2" stroke-width="2.2" />
<circle cx="846.90" cy="315.23" r="4.4" fill="#ffffff" stroke="#0891b2" stroke-width="2.2" />
<circle cx="940.00" cy="286.19" r="4.4" fill="#ffffff" stroke="#0891b2" stroke-width="2.2" />
<polygon points="100.00,312.76 473.45,310.49 660.18,299.40 846.90,226.45 940.00,191.82 940.00,238.90 846.90,264.77 660.18,300.49 473.45,311.20 100.00,313.46" fill="#16a34a" fill-opacity="0.12" stroke="none" />
<polyline fill="none" stroke="#16a34a" stroke-width="3.2" stroke-linecap="round" stroke-linejoin="round" points="100.00,313.24 473.45,311.03 660.18,300.23 846.90,264.34 940.00,238.20" />
<circle cx="100.00" cy="313.24" r="4.4" fill="#ffffff" stroke="#16a34a" stroke-width="2.2" />
<circle cx="473.45" cy="311.03" r="4.4" fill="#ffffff" stroke="#16a34a" stroke-width="2.2" />
<circle cx="660.18" cy="300.23" r="4.4" fill="#ffffff" stroke="#16a34a" stroke-width="2.2" />
<circle cx="846.90" cy="264.34" r="4.4" fill="#ffffff" stroke="#16a34a" stroke-width="2.2" />
<circle cx="940.00" cy="238.20" r="4.4" fill="#ffffff" stroke="#16a34a" stroke-width="2.2" />
<polygon points="100.00,203.82 473.45,210.34 660.18,201.03 846.90,192.01 940.00,174.62 940.00,184.36 846.90,200.52 660.18,210.53 473.45,220.83 100.00,214.35" fill="#7c3aed" fill-opacity="0.12" stroke="none" />
<polyline fill="none" stroke="#7c3aed" stroke-width="3.2" stroke-linecap="round" stroke-linejoin="round" points="100.00,209.00 473.45,211.92 660.18,201.64 846.90,196.56 940.00,183.28" />
<circle cx="100.00" cy="209.00" r="4.4" fill="#ffffff" stroke="#7c3aed" stroke-width="2.2" />
<circle cx="473.45" cy="211.92" r="4.4" fill="#ffffff" stroke="#7c3aed" stroke-width="2.2" />
<circle cx="660.18" cy="201.64" r="4.4" fill="#ffffff" stroke="#7c3aed" stroke-width="2.2" />
<circle cx="846.90" cy="196.56" r="4.4" fill="#ffffff" stroke="#7c3aed" stroke-width="2.2" />
<circle cx="940.00" cy="183.28" r="4.4" fill="#ffffff" stroke="#7c3aed" stroke-width="2.2" />
<polygon points="100.00,217.89 473.45,205.00 660.18,203.92 846.90,186.94 940.00,196.12 940.00,197.29 846.90,211.92 660.18,221.11 473.45,230.82 100.00,227.07" fill="#a16207" fill-opacity="0.12" stroke="none" />
<polyline fill="none" stroke="#a16207" stroke-width="3.2" stroke-linecap="round" stroke-linejoin="round" points="100.00,224.96 473.45,230.58 660.18,212.71 846.90,195.51 940.00,197.10" />
<circle cx="100.00" cy="224.96" r="4.4" fill="#ffffff" stroke="#a16207" stroke-width="2.2" />
<circle cx="473.45" cy="230.58" r="4.4" fill="#ffffff" stroke="#a16207" stroke-width="2.2" />
<circle cx="660.18" cy="212.71" r="4.4" fill="#ffffff" stroke="#a16207" stroke-width="2.2" />
<circle cx="846.90" cy="195.51" r="4.4" fill="#ffffff" stroke="#a16207" stroke-width="2.2" />
<circle cx="940.00" cy="197.10" r="4.4" fill="#ffffff" stroke="#a16207" stroke-width="2.2" />
<polygon points="100.00,181.87 473.45,139.82 660.18,129.31 846.90,131.55 940.00,134.11 940.00,134.81 846.90,137.27 660.18,145.11 473.45,147.59 100.00,187.79" fill="#db2777" fill-opacity="0.12" stroke="none" />
<polyline fill="none" stroke="#db2777" stroke-width="3.2" stroke-linecap="round" stroke-linejoin="round" points="100.00,185.18 473.45,146.64 660.18,140.55 846.90,134.24 940.00,134.72" />
<circle cx="100.00" cy="185.18" r="4.4" fill="#ffffff" stroke="#db2777" stroke-width="2.2" />
<circle cx="473.45" cy="146.64" r="4.4" fill="#ffffff" stroke="#db2777" stroke-width="2.2" />
<circle cx="660.18" cy="140.55" r="4.4" fill="#ffffff" stroke="#db2777" stroke-width="2.2" />
<circle cx="846.90" cy="134.24" r="4.4" fill="#ffffff" stroke="#db2777" stroke-width="2.2" />
<circle cx="940.00" cy="134.72" r="4.4" fill="#ffffff" stroke="#db2777" stroke-width="2.2" />
<rect x="980" y="110" width="290" height="324" rx="12" fill="#f9fafb" stroke="#e5e7eb" />
<text x="998" y="136" font-family="Segoe UI, Arial, sans-serif" font-size="16" font-weight="700" fill="#111827">Legend</text>
<line x1="998" y1="162" x2="1032" y2="162" stroke="#6b7280" stroke-width="3.2" stroke-linecap="round" stroke-dasharray="8 5" />
<circle cx="1015" cy="162" r="4.2" fill="#ffffff" stroke="#6b7280" stroke-width="2.1" />
<text x="1044" y="167" font-family="Segoe UI, Arial, sans-serif" font-size="13.5" fill="#111827">copy-roundtrip (floor)</text>
<line x1="998" y1="194" x2="1032" y2="194" stroke="#dc2626" stroke-width="3.2" stroke-linecap="round" />
<circle cx="1015" cy="194" r="4.2" fill="#ffffff" stroke="#dc2626" stroke-width="2.1" />
<text x="1044" y="199" font-family="Segoe UI, Arial, sans-serif" font-size="13.5" fill="#111827">shm-mailbox-spin</text>
<line x1="998" y1="226" x2="1032" y2="226" stroke="#f97316" stroke-width="3.2" stroke-linecap="round" />
<circle cx="1015" cy="226" r="4.2" fill="#ffffff" stroke="#f97316" stroke-width="2.1" />
<text x="1044" y="231" font-family="Segoe UI, Arial, sans-serif" font-size="13.5" fill="#111827">shm-mailbox-hybrid</text>
<line x1="998" y1="258" x2="1032" y2="258" stroke="#2563eb" stroke-width="3.2" stroke-linecap="round" />
<circle cx="1015" cy="258" r="4.2" fill="#ffffff" stroke="#2563eb" stroke-width="2.1" />
<text x="1044" y="263" font-family="Segoe UI, Arial, sans-serif" font-size="13.5" fill="#111827">shm-ring-spin</text>
<line x1="998" y1="290" x2="1032" y2="290" stroke="#0891b2" stroke-width="3.2" stroke-linecap="round" />
<circle cx="1015" cy="290" r="4.2" fill="#ffffff" stroke="#0891b2" stroke-width="2.1" />
<text x="1044" y="295" font-family="Segoe UI, Arial, sans-serif" font-size="13.5" fill="#111827">shm-ring-hybrid</text>
<line x1="998" y1="322" x2="1032" y2="322" stroke="#16a34a" stroke-width="3.2" stroke-linecap="round" />
<circle cx="1015" cy="322" r="4.2" fill="#ffffff" stroke="#16a34a" stroke-width="2.1" />
<text x="1044" y="327" font-family="Segoe UI, Arial, sans-serif" font-size="13.5" fill="#111827">iceoryx2-pubsub-loan</text>
<line x1="998" y1="354" x2="1032" y2="354" stroke="#7c3aed" stroke-width="3.2" stroke-linecap="round" />
<circle cx="1015" cy="354" r="4.2" fill="#ffffff" stroke="#7c3aed" stroke-width="2.1" />
<text x="1044" y="359" font-family="Segoe UI, Arial, sans-serif" font-size="13.5" fill="#111827">named-pipe-message-sync</text>
<line x1="998" y1="386" x2="1032" y2="386" stroke="#a16207" stroke-width="3.2" stroke-linecap="round" />
<circle cx="1015" cy="386" r="4.2" fill="#ffffff" stroke="#a16207" stroke-width="2.1" />
<text x="1044" y="391" font-family="Segoe UI, Arial, sans-serif" font-size="13.5" fill="#111827">shm-events</text>
<line x1="998" y1="418" x2="1032" y2="418" stroke="#db2777" stroke-width="3.2" stroke-linecap="round" />
<circle cx="1015" cy="418" r="4.2" fill="#ffffff" stroke="#db2777" stroke-width="2.1" />
<text x="1044" y="423" font-family="Segoe UI, Arial, sans-serif" font-size="13.5" fill="#111827">py-multiprocessing-pipe</text>
<text x="100" y="752" font-family="Segoe UI, Arial, sans-serif" font-size="12" fill="#6b7280">Generated from published summary.json files by scripts/generate-published-charts.py</text>
</svg>