<svg xmlns="http://www.w3.org/2000/svg" width="1320" height="760" viewBox="0 0 1320 760" role="img" aria-labelledby="title desc">
<title id="title">High-iteration run: selected latency curves</title>
<desc id="desc">Selected cross-tier methods; lower is better; copy-roundtrip is the baseline floor.</desc>
<rect width="100%" height="100%" fill="#ffffff" />
<text x="100" y="42" font-family="Segoe UI, Arial, sans-serif" font-size="28" font-weight="700" fill="#111827">High-iteration run: selected latency curves</text>
<text x="100" y="68" font-family="Segoe UI, Arial, sans-serif" font-size="15" fill="#4b5563">Selected cross-tier methods; lower is better; copy-roundtrip is the baseline floor.</text>
<line x1="100" y1="615.80" x2="940" y2="615.80" stroke="#e5e7eb" stroke-width="1" />
<text x="88" y="620.80" text-anchor="end" font-family="Segoe UI, Arial, sans-serif" font-size="13" fill="#374151">0.020 us</text>
<line x1="100" y1="555.56" x2="940" y2="555.56" stroke="#e5e7eb" stroke-width="1" />
<text x="88" y="560.56" text-anchor="end" font-family="Segoe UI, Arial, sans-serif" font-size="13" fill="#374151">0.050 us</text>
<line x1="100" y1="509.98" x2="940" y2="509.98" stroke="#e5e7eb" stroke-width="1" />
<text x="88" y="514.98" text-anchor="end" font-family="Segoe UI, Arial, sans-serif" font-size="13" fill="#374151">0.10 us</text>
<line x1="100" y1="464.41" x2="940" y2="464.41" stroke="#e5e7eb" stroke-width="1" />
<text x="88" y="469.41" text-anchor="end" font-family="Segoe UI, Arial, sans-serif" font-size="13" fill="#374151">0.20 us</text>
<line x1="100" y1="404.17" x2="940" y2="404.17" stroke="#e5e7eb" stroke-width="1" />
<text x="88" y="409.17" text-anchor="end" font-family="Segoe UI, Arial, sans-serif" font-size="13" fill="#374151">0.50 us</text>
<line x1="100" y1="358.60" x2="940" y2="358.60" stroke="#e5e7eb" stroke-width="1" />
<text x="88" y="363.60" text-anchor="end" font-family="Segoe UI, Arial, sans-serif" font-size="13" fill="#374151">1.0 us</text>
<line x1="100" y1="313.03" x2="940" y2="313.03" stroke="#e5e7eb" stroke-width="1" />
<text x="88" y="318.03" text-anchor="end" font-family="Segoe UI, Arial, sans-serif" font-size="13" fill="#374151">2.0 us</text>
<line x1="100" y1="252.79" x2="940" y2="252.79" stroke="#e5e7eb" stroke-width="1" />
<text x="88" y="257.79" text-anchor="end" font-family="Segoe UI, Arial, sans-serif" font-size="13" fill="#374151">5.0 us</text>
<line x1="100" y1="207.22" x2="940" y2="207.22" stroke="#e5e7eb" stroke-width="1" />
<text x="88" y="212.22" text-anchor="end" font-family="Segoe UI, Arial, sans-serif" font-size="13" fill="#374151">10 us</text>
<line x1="100" y1="161.65" x2="940" y2="161.65" stroke="#e5e7eb" stroke-width="1" />
<text x="88" y="166.65" text-anchor="end" font-family="Segoe UI, Arial, sans-serif" font-size="13" fill="#374151">20 us</text>
<line x1="100" y1="101.41" x2="940" y2="101.41" stroke="#e5e7eb" stroke-width="1" />
<text x="88" y="106.41" text-anchor="end" font-family="Segoe UI, Arial, sans-serif" font-size="13" fill="#374151">50 us</text>
<line x1="100.00" y1="90" x2="100.00" y2="660" stroke="#f3f4f6" stroke-width="1" />
<text x="100.00" y="688" text-anchor="middle" font-family="Segoe UI, Arial, sans-serif" font-size="13" fill="#374151">64 B</text>
<line x1="473.45" y1="90" x2="473.45" y2="660" stroke="#f3f4f6" stroke-width="1" />
<text x="473.45" y="688" text-anchor="middle" font-family="Segoe UI, Arial, sans-serif" font-size="13" fill="#374151">1024 B</text>
<line x1="660.18" y1="90" x2="660.18" y2="660" stroke="#f3f4f6" stroke-width="1" />
<text x="660.18" y="688" text-anchor="middle" font-family="Segoe UI, Arial, sans-serif" font-size="13" fill="#374151">4096 B</text>
<line x1="846.90" y1="90" x2="846.90" y2="660" stroke="#f3f4f6" stroke-width="1" />
<text x="846.90" y="688" text-anchor="middle" font-family="Segoe UI, Arial, sans-serif" font-size="13" fill="#374151">16384 B</text>
<line x1="940.00" y1="90" x2="940.00" y2="660" stroke="#f3f4f6" stroke-width="1" />
<text x="940.00" y="688" text-anchor="middle" font-family="Segoe UI, Arial, sans-serif" font-size="13" fill="#374151">32704 B</text>
<line x1="100" y1="660" x2="940" y2="660" stroke="#111827" stroke-width="1.5" />
<line x1="100" y1="90" x2="100" y2="660" stroke="#111827" stroke-width="1.5" />
<text x="520.00" y="732" text-anchor="middle" font-family="Segoe UI, Arial, sans-serif" font-size="14" fill="#374151">Payload size (bytes, log spacing)</text>
<text x="26" y="375.00" text-anchor="middle" font-family="Segoe UI, Arial, sans-serif" font-size="14" fill="#374151" transform="rotate(-90 26 375.00)">Median launch-average latency (log scale)</text>
<polyline fill="none" stroke="#6b7280" stroke-width="3.2" stroke-linecap="round" stroke-linejoin="round" stroke-dasharray="8 5" points="100.00,620.69 473.45,553.55 660.18,482.32 846.90,346.61 940.00,309.30" />
<circle cx="100.00" cy="620.69" r="4.4" fill="#ffffff" stroke="#6b7280" stroke-width="2.2" />
<circle cx="473.45" cy="553.55" r="4.4" fill="#ffffff" stroke="#6b7280" stroke-width="2.2" />
<circle cx="660.18" cy="482.32" r="4.4" fill="#ffffff" stroke="#6b7280" stroke-width="2.2" />
<circle cx="846.90" cy="346.61" r="4.4" fill="#ffffff" stroke="#6b7280" stroke-width="2.2" />
<circle cx="940.00" cy="309.30" r="4.4" fill="#ffffff" stroke="#6b7280" stroke-width="2.2" />
<polyline fill="none" stroke="#dc2626" stroke-width="3.2" stroke-linecap="round" stroke-linejoin="round" points="100.00,503.16 473.45,456.34 660.18,385.72 846.90,304.69 940.00,260.24" />
<circle cx="100.00" cy="503.16" r="4.4" fill="#ffffff" stroke="#dc2626" stroke-width="2.2" />
<circle cx="473.45" cy="456.34" r="4.4" fill="#ffffff" stroke="#dc2626" stroke-width="2.2" />
<circle cx="660.18" cy="385.72" r="4.4" fill="#ffffff" stroke="#dc2626" stroke-width="2.2" />
<circle cx="846.90" cy="304.69" r="4.4" fill="#ffffff" stroke="#dc2626" stroke-width="2.2" />
<circle cx="940.00" cy="260.24" r="4.4" fill="#ffffff" stroke="#dc2626" stroke-width="2.2" />
<polyline fill="none" stroke="#f97316" stroke-width="3.2" stroke-linecap="round" stroke-linejoin="round" points="100.00,447.15 473.45,437.95 660.18,386.78 846.90,300.04 940.00,255.85" />
<circle cx="100.00" cy="447.15" r="4.4" fill="#ffffff" stroke="#f97316" stroke-width="2.2" />
<circle cx="473.45" cy="437.95" r="4.4" fill="#ffffff" stroke="#f97316" stroke-width="2.2" />
<circle cx="660.18" cy="386.78" r="4.4" fill="#ffffff" stroke="#f97316" stroke-width="2.2" />
<circle cx="846.90" cy="300.04" r="4.4" fill="#ffffff" stroke="#f97316" stroke-width="2.2" />
<circle cx="940.00" cy="255.85" r="4.4" fill="#ffffff" stroke="#f97316" stroke-width="2.2" />
<polyline fill="none" stroke="#2563eb" stroke-width="3.2" stroke-linecap="round" stroke-linejoin="round" points="100.00,482.96 473.45,448.13 660.18,386.48 846.90,316.21 940.00,277.50" />
<circle cx="100.00" cy="482.96" r="4.4" fill="#ffffff" stroke="#2563eb" stroke-width="2.2" />
<circle cx="473.45" cy="448.13" r="4.4" fill="#ffffff" stroke="#2563eb" stroke-width="2.2" />
<circle cx="660.18" cy="386.48" r="4.4" fill="#ffffff" stroke="#2563eb" stroke-width="2.2" />
<circle cx="846.90" cy="316.21" r="4.4" fill="#ffffff" stroke="#2563eb" stroke-width="2.2" />
<circle cx="940.00" cy="277.50" r="4.4" fill="#ffffff" stroke="#2563eb" stroke-width="2.2" />
<polyline fill="none" stroke="#0891b2" stroke-width="3.2" stroke-linecap="round" stroke-linejoin="round" points="100.00,441.10 473.45,428.44 660.18,385.17 846.90,312.72 940.00,283.30" />
<circle cx="100.00" cy="441.10" r="4.4" fill="#ffffff" stroke="#0891b2" stroke-width="2.2" />
<circle cx="473.45" cy="428.44" r="4.4" fill="#ffffff" stroke="#0891b2" stroke-width="2.2" />
<circle cx="660.18" cy="385.17" r="4.4" fill="#ffffff" stroke="#0891b2" stroke-width="2.2" />
<circle cx="846.90" cy="312.72" r="4.4" fill="#ffffff" stroke="#0891b2" stroke-width="2.2" />
<circle cx="940.00" cy="283.30" r="4.4" fill="#ffffff" stroke="#0891b2" stroke-width="2.2" />
<polyline fill="none" stroke="#16a34a" stroke-width="3.2" stroke-linecap="round" stroke-linejoin="round" points="100.00,310.71 473.45,308.47 660.18,297.53 846.90,261.15 940.00,234.66" />
<circle cx="100.00" cy="310.71" r="4.4" fill="#ffffff" stroke="#16a34a" stroke-width="2.2" />
<circle cx="473.45" cy="308.47" r="4.4" fill="#ffffff" stroke="#16a34a" stroke-width="2.2" />
<circle cx="660.18" cy="297.53" r="4.4" fill="#ffffff" stroke="#16a34a" stroke-width="2.2" />
<circle cx="846.90" cy="261.15" r="4.4" fill="#ffffff" stroke="#16a34a" stroke-width="2.2" />
<circle cx="940.00" cy="234.66" r="4.4" fill="#ffffff" stroke="#16a34a" stroke-width="2.2" />
<polyline fill="none" stroke="#7c3aed" stroke-width="3.2" stroke-linecap="round" stroke-linejoin="round" points="100.00,205.07 473.45,208.03 660.18,197.62 846.90,192.47 940.00,179.01" />
<circle cx="100.00" cy="205.07" r="4.4" fill="#ffffff" stroke="#7c3aed" stroke-width="2.2" />
<circle cx="473.45" cy="208.03" r="4.4" fill="#ffffff" stroke="#7c3aed" stroke-width="2.2" />
<circle cx="660.18" cy="197.62" r="4.4" fill="#ffffff" stroke="#7c3aed" stroke-width="2.2" />
<circle cx="846.90" cy="192.47" r="4.4" fill="#ffffff" stroke="#7c3aed" stroke-width="2.2" />
<circle cx="940.00" cy="179.01" r="4.4" fill="#ffffff" stroke="#7c3aed" stroke-width="2.2" />
<polyline fill="none" stroke="#a16207" stroke-width="3.2" stroke-linecap="round" stroke-linejoin="round" points="100.00,221.25 473.45,226.94 660.18,208.83 846.90,191.40 940.00,193.02" />
<circle cx="100.00" cy="221.25" r="4.4" fill="#ffffff" stroke="#a16207" stroke-width="2.2" />
<circle cx="473.45" cy="226.94" r="4.4" fill="#ffffff" stroke="#a16207" stroke-width="2.2" />
<circle cx="660.18" cy="208.83" r="4.4" fill="#ffffff" stroke="#a16207" stroke-width="2.2" />
<circle cx="846.90" cy="191.40" r="4.4" fill="#ffffff" stroke="#a16207" stroke-width="2.2" />
<circle cx="940.00" cy="193.02" r="4.4" fill="#ffffff" stroke="#a16207" stroke-width="2.2" />
<polyline fill="none" stroke="#db2777" stroke-width="3.2" stroke-linecap="round" stroke-linejoin="round" points="100.00,180.93 473.45,141.88 660.18,135.70 846.90,129.31 940.00,129.80" />
<circle cx="100.00" cy="180.93" r="4.4" fill="#ffffff" stroke="#db2777" stroke-width="2.2" />
<circle cx="473.45" cy="141.88" r="4.4" fill="#ffffff" stroke="#db2777" stroke-width="2.2" />
<circle cx="660.18" cy="135.70" r="4.4" fill="#ffffff" stroke="#db2777" stroke-width="2.2" />
<circle cx="846.90" cy="129.31" r="4.4" fill="#ffffff" stroke="#db2777" stroke-width="2.2" />
<circle cx="940.00" cy="129.80" r="4.4" fill="#ffffff" stroke="#db2777" stroke-width="2.2" />
<rect x="980" y="110" width="290" height="324" rx="12" fill="#f9fafb" stroke="#e5e7eb" />
<text x="998" y="136" font-family="Segoe UI, Arial, sans-serif" font-size="16" font-weight="700" fill="#111827">Legend</text>
<line x1="998" y1="162" x2="1032" y2="162" stroke="#6b7280" stroke-width="3.2" stroke-linecap="round" stroke-dasharray="8 5" />
<circle cx="1015" cy="162" r="4.2" fill="#ffffff" stroke="#6b7280" stroke-width="2.1" />
<text x="1044" y="167" font-family="Segoe UI, Arial, sans-serif" font-size="13.5" fill="#111827">copy-roundtrip (floor)</text>
<line x1="998" y1="194" x2="1032" y2="194" stroke="#dc2626" stroke-width="3.2" stroke-linecap="round" />
<circle cx="1015" cy="194" r="4.2" fill="#ffffff" stroke="#dc2626" stroke-width="2.1" />
<text x="1044" y="199" font-family="Segoe UI, Arial, sans-serif" font-size="13.5" fill="#111827">shm-mailbox-spin</text>
<line x1="998" y1="226" x2="1032" y2="226" stroke="#f97316" stroke-width="3.2" stroke-linecap="round" />
<circle cx="1015" cy="226" r="4.2" fill="#ffffff" stroke="#f97316" stroke-width="2.1" />
<text x="1044" y="231" font-family="Segoe UI, Arial, sans-serif" font-size="13.5" fill="#111827">shm-mailbox-hybrid</text>
<line x1="998" y1="258" x2="1032" y2="258" stroke="#2563eb" stroke-width="3.2" stroke-linecap="round" />
<circle cx="1015" cy="258" r="4.2" fill="#ffffff" stroke="#2563eb" stroke-width="2.1" />
<text x="1044" y="263" font-family="Segoe UI, Arial, sans-serif" font-size="13.5" fill="#111827">shm-ring-spin</text>
<line x1="998" y1="290" x2="1032" y2="290" stroke="#0891b2" stroke-width="3.2" stroke-linecap="round" />
<circle cx="1015" cy="290" r="4.2" fill="#ffffff" stroke="#0891b2" stroke-width="2.1" />
<text x="1044" y="295" font-family="Segoe UI, Arial, sans-serif" font-size="13.5" fill="#111827">shm-ring-hybrid</text>
<line x1="998" y1="322" x2="1032" y2="322" stroke="#16a34a" stroke-width="3.2" stroke-linecap="round" />
<circle cx="1015" cy="322" r="4.2" fill="#ffffff" stroke="#16a34a" stroke-width="2.1" />
<text x="1044" y="327" font-family="Segoe UI, Arial, sans-serif" font-size="13.5" fill="#111827">iceoryx2-pubsub-loan</text>
<line x1="998" y1="354" x2="1032" y2="354" stroke="#7c3aed" stroke-width="3.2" stroke-linecap="round" />
<circle cx="1015" cy="354" r="4.2" fill="#ffffff" stroke="#7c3aed" stroke-width="2.1" />
<text x="1044" y="359" font-family="Segoe UI, Arial, sans-serif" font-size="13.5" fill="#111827">named-pipe-message-sync</text>
<line x1="998" y1="386" x2="1032" y2="386" stroke="#a16207" stroke-width="3.2" stroke-linecap="round" />
<circle cx="1015" cy="386" r="4.2" fill="#ffffff" stroke="#a16207" stroke-width="2.1" />
<text x="1044" y="391" font-family="Segoe UI, Arial, sans-serif" font-size="13.5" fill="#111827">shm-events</text>
<line x1="998" y1="418" x2="1032" y2="418" stroke="#db2777" stroke-width="3.2" stroke-linecap="round" />
<circle cx="1015" cy="418" r="4.2" fill="#ffffff" stroke="#db2777" stroke-width="2.1" />
<text x="1044" y="423" font-family="Segoe UI, Arial, sans-serif" font-size="13.5" fill="#111827">py-multiprocessing-pipe</text>
<text x="100" y="752" font-family="Segoe UI, Arial, sans-serif" font-size="12" fill="#6b7280">Generated from published summary.json files by scripts/generate-published-charts.py</text>
</svg>